<?xml version="1.0" encoding="UTF-8"?>
<svg xmlns="http://www.w3.org/2000/svg" xmlns:xlink="http://www.w3.org/1999/xlink" width="24px" height="px" viewBox="0 0 24 24" version="1.1">
<g id="surface1">
<path style=" stroke:none;fill-rule:nonzero;fill:rgb(0%,0%,0%);fill-opacity:1;" d="M 4.933594 0 C 3.625 -0.00390625 2.367188 0.515625 1.441406 1.441406 C 0.515625 2.367188 -0.00390625 3.625 0 4.933594 L 0 19.066406 C -0.00390625 20.375 0.515625 21.632812 1.441406 22.558594 C 2.367188 23.484375 3.625 24.003906 4.933594 24 L 19.066406 24 C 20.375 24.003906 21.632812 23.484375 22.558594 22.558594 C 23.484375 21.632812 24.003906 20.375 24 19.066406 L 24 4.933594 C 24.003906 3.625 23.484375 2.367188 22.558594 1.441406 C 21.632812 0.515625 20.375 -0.00390625 19.066406 0 Z M 12.746094 4.546875 C 14.925781 4.546875 16.804688 5.222656 18.144531 6.394531 C 19.496094 7.5625 20.269531 9.265625 20.261719 11.054688 C 20.265625 12.90625 19.378906 14.53125 18.003906 15.617188 C 16.628906 16.710938 14.777344 17.3125 12.746094 17.3125 C 10.429688 17.3125 8.285156 16.472656 8.285156 16.472656 L 8.285156 19.191406 C 8.683594 19.304688 9.332031 19.554688 8.921875 19.96875 L 5.789062 19.96875 C 5.378906 19.558594 5.980469 19.320312 6.433594 19.191406 L 6.433594 7.664062 C 5.382812 8.476562 4.839844 9.175781 4.566406 9.695312 C 4.886719 10.71875 4.28125 10.664062 4.28125 10.664062 L 3.191406 8.9375 C 3.191406 8.9375 7.058594 4.546875 12.746094 4.546875 Z M 12.554688 5.519531 C 11.132812 5.515625 9.371094 5.992188 8.285156 6.761719 L 8.285156 15.40625 C 9.273438 15.894531 10.769531 16.238281 12.546875 16.238281 L 12.554688 16.238281 C 14.152344 16.238281 15.535156 15.648438 16.484375 14.707031 C 17.4375 13.757812 17.972656 12.523438 17.976562 11.023438 C 17.972656 9.484375 17.472656 8.160156 16.558594 7.164062 C 15.640625 6.171875 14.28125 5.519531 12.554688 5.519531 Z M 12.554688 5.519531 "/>
</g>
</svg>
