<?xml version="1.0" encoding="UTF-8"?>
<svg xmlns="http://www.w3.org/2000/svg" xmlns:xlink="http://www.w3.org/1999/xlink" width="24px" height="px" viewBox="0 0 24 24" version="1.1">
<g id="surface1">
<path style=" stroke:none;fill-rule:nonzero;fill:rgb(0%,0%,0%);fill-opacity:1;" d="M 23.953125 4.570312 C 24.449219 -0.4375 28.589844 -4.300781 33.621094 -4.441406 C 38.652344 -4.585938 43.007812 -0.964844 43.785156 4.007812 C 44.5625 8.984375 41.519531 13.757812 36.6875 15.160156 C 31.851562 16.558594 26.726562 14.148438 24.726562 9.527344 C 23.777344 10.082031 22.722656 10.488281 21.601562 10.710938 C 22.804688 9.59375 24.484375 9.148438 26.082031 9.527344 C 7.691406 8.09375 4.066406 6.128906 1.640625 3.160156 C 2.8125 3.675781 3.734375 4.636719 4.199219 5.832031 C 4.664062 7.027344 4.632812 8.355469 4.113281 9.527344 C 4.113281 11.238281 4.984375 12.742188 6.304688 13.625 C 5.652344 15.828125 3.558594 17.289062 1.261719 17.128906 C -1.03125 16.972656 -2.910156 15.242188 -3.25 12.964844 C -3.59375 10.691406 -2.308594 8.484375 -0.160156 7.660156 C 1.984375 6.835938 4.417969 7.609375 5.6875 9.527344 L 5.6875 9.589844 C 5.726562 6.886719 7.933594 4.726562 10.632812 4.738281 C 13.332031 4.753906 15.519531 6.9375 15.53125 9.636719 C 15.546875 12.335938 13.382812 14.542969 10.683594 14.585938 L 15.617188 14.585938 C 17.417969 15.570312 19.757812 15.558594 21.265625 14.550781 C 22.777344 13.546875 23.0625 11.8125 21.953125 10.363281 C 20.84375 8.914062 18.636719 8.136719 16.617188 8.480469 C 16.230469 8.480469 15.839844 8.460938 15.449219 8.414062 C 22.285156 10.121094 26.785156 16.640625 25.960938 23.632812 C 25.132812 30.628906 19.238281 35.921875 12.195312 35.988281 C 5.152344 36.054688 -0.84375 30.878906 -1.804688 23.898438 C -2.761719 16.921875 1.613281 10.316406 8.414062 8.480469 C 17.46875 8.480469 22.414062 0.984375 22.414062 -5.503906 C 22.414062 -5.714844 22.414062 -5.921875 22.398438 -6.132812 C 26.433594 1.746094 23.320312 11.402344 15.441406 15.441406 C 7.5625 19.476562 -2.097656 16.359375 -6.132812 8.480469 Z M 23.953125 4.570312 "/>
</g>
</svg>
